<svg width="438" height="438" viewBox="0 0 438 438" fill="none" xmlns="http://www.w3.org/2000/svg">
<g clip-path="url(#clip0_113_937)">
<path d="M170.333 350.4C176.787 350.4 182.976 348.093 187.54 343.986C192.103 339.879 194.667 334.308 194.667 328.5V197.1C194.667 191.292 192.103 185.721 187.54 181.614C182.976 177.507 176.787 175.2 170.333 175.2C163.88 175.2 157.69 177.507 153.127 181.614C148.564 185.721 146 191.292 146 197.1V328.5C146 334.308 148.564 339.879 153.127 343.986C157.69 348.093 163.88 350.4 170.333 350.4ZM413.667 87.6H316.333V65.7C316.333 48.2753 308.642 31.5642 294.952 19.2431C281.262 6.92195 262.694 0 243.333 0H194.667C175.306 0 156.738 6.92195 143.048 19.2431C129.358 31.5642 121.667 48.2753 121.667 65.7V87.6H24.3333C17.8797 87.6 11.6905 89.9073 7.12707 94.0144C2.56368 98.1214 0 103.692 0 109.5C0 115.308 2.56368 120.879 7.12707 124.986C11.6905 129.093 17.8797 131.4 24.3333 131.4H48.6667V372.3C48.6667 389.725 56.3577 406.436 70.0479 418.757C83.738 431.078 102.306 438 121.667 438H316.333C335.694 438 354.262 431.078 367.952 418.757C381.642 406.436 389.333 389.725 389.333 372.3V131.4H413.667C420.12 131.4 426.31 129.093 430.873 124.986C435.436 120.879 438 115.308 438 109.5C438 103.692 435.436 98.1214 430.873 94.0144C426.31 89.9073 420.12 87.6 413.667 87.6ZM170.333 65.7C170.333 59.8918 172.897 54.3214 177.46 50.2144C182.024 46.1073 188.213 43.8 194.667 43.8H243.333C249.787 43.8 255.976 46.1073 260.54 50.2144C265.103 54.3214 267.667 59.8918 267.667 65.7V87.6H170.333V65.7ZM340.667 372.3C340.667 378.108 338.103 383.679 333.54 387.786C328.976 391.893 322.787 394.2 316.333 394.2H121.667C115.213 394.2 109.024 391.893 104.46 387.786C99.897 383.679 97.3333 378.108 97.3333 372.3V131.4H340.667V372.3ZM267.667 350.4C274.12 350.4 280.31 348.093 284.873 343.986C289.436 339.879 292 334.308 292 328.5V197.1C292 191.292 289.436 185.721 284.873 181.614C280.31 177.507 274.12 175.2 267.667 175.2C261.213 175.2 255.024 177.507 250.46 181.614C245.897 185.721 243.333 191.292 243.333 197.1V328.5C243.333 334.308 245.897 339.879 250.46 343.986C255.024 348.093 261.213 350.4 267.667 350.4Z" fill="#F1F1F1"/>
</g>
<defs>
<clipPath id="clip0_113_937">
<rect width="438" height="438" fill="white"/>
</clipPath>
</defs>
</svg>
